<svg width="1280" height="720" viewBox="0 0 1280 720" fill="none" xmlns="http://www.w3.org/2000/svg">
  <rect width="1280" height="720" rx="36" fill="#F8FAFC"/>
  <rect x="86" y="146" width="242" height="428" rx="26" fill="#E0F2FE"/>
  <rect x="406" y="146" width="182" height="428" rx="26" fill="#DBEAFE"/>
  <rect x="666" y="146" width="182" height="428" rx="26" fill="#CCFBF1"/>
  <rect x="926" y="146" width="268" height="428" rx="26" fill="#EEF2FF"/>
  <path d="M328 360H406" stroke="#2563EB" stroke-width="18" stroke-linecap="round"/>
  <path d="M588 360H666" stroke="#0F766E" stroke-width="18" stroke-linecap="round"/>
  <path d="M848 360H926" stroke="#4F46E5" stroke-width="18" stroke-linecap="round"/>
  <rect x="128" y="198" width="158" height="26" rx="13" fill="#2563EB" fill-opacity="0.18"/>
  <rect x="128" y="252" width="122" height="26" rx="13" fill="#2563EB" fill-opacity="0.18"/>
  <rect x="128" y="306" width="144" height="26" rx="13" fill="#2563EB" fill-opacity="0.18"/>
  <rect x="128" y="376" width="158" height="126" rx="18" fill="#FFFFFF"/>
  <rect x="448" y="208" width="98" height="98" rx="22" fill="#2563EB"/>
  <rect x="708" y="208" width="98" height="98" rx="22" fill="#14B8A6"/>
  <rect x="972" y="206" width="176" height="34" rx="17" fill="#4F46E5" fill-opacity="0.16"/>
  <rect x="972" y="270" width="176" height="34" rx="17" fill="#4F46E5" fill-opacity="0.16"/>
  <rect x="972" y="334" width="176" height="34" rx="17" fill="#4F46E5" fill-opacity="0.16"/>
  <rect x="972" y="398" width="176" height="34" rx="17" fill="#4F46E5" fill-opacity="0.16"/>
</svg>
